    <svg xmlns="http://www.w3.org/2000/svg">
    <symbol id="logo">
     <path d="M20,26a6,6,0,1,0-6-6h0A6,6,0,0,0,20,26ZM20,0a20,20,0,0,0-6,.92V12a10,10,0,1,1-4,8V2.67A20,20,0,1,0,20,0Z" fill="#e01f3d"/>
    </symbol>
  
    <symbol id="noise">
        <g id="Page-1" fill="none" fill-rule="evenodd"><g id="096---Listening" fill="rgb(0,0,0)" fill-rule="nonzero"><path id="Shape" d="m18 0c-9.925 0-18 8.748-18 19.549.03819386 2.5043778.72485482 4.9560985 1.993 7.116.5992406 1.0222536 1.11234558 2.092616 1.534 3.2.27964082.8138953.01123513 1.7155455-.668 2.244-1.18174374.9447425-1.86653676 2.3780559-1.859 3.891-.00474262 1.6625215.81717917 3.2186634 2.193 4.152.49462827.3360251.79548602.8911393.807 1.489v8.359c0 5.514 4.037 10 9 10s9-4.486 9-10c-.0151885-4.1184474 1.7757406-8.0365615 4.9-10.72 5.8568631-4.8868272 9.199657-12.1528122 9.1-19.78 0-10.752-8.075-19.5-18-19.5zm7.6 37.761c-3.5690404 3.0626345-5.6158785 7.5360725-5.6 12.239 0 4.411-3.141 8-7 8s-7-3.589-7-8v-8.359c-.01620182-1.2385055-.62394239-2.3945136-1.635-3.11-.85435865-.5579765-1.36810973-1.5105801-1.365-2.531-.00686155-.9198384.41445209-1.7905533 1.14-2.356 1.33140873-1.066671 1.83976683-2.86038 1.266-4.467-.46056114-1.2113301-1.02151176-2.3820678-1.677-3.5-1.10201369-1.874322-1.69783317-4.0029379-1.729-6.177 0-9.649 7.178-17.5 16-17.5s16 7.851 16 17.5c.0915428 7.0411079-2.9939568 13.7487636-8.4 18.261z"/><path id="Shape" d="m18 5c-5.573 0-10.325 3.952-12.17 9.476-.013.033-.022.065-.032.1-.5272418 1.6040759-.79724954 3.2814989-.8 4.97 0 1.2 0 4.87 2.293 7.163.39237889.3789722 1.01608478.3735524 1.40181858-.0121814.38573379-.3857338.39115363-1.0094397.01218142-1.4018186-.82155739-.9132539-1.3491204-2.0527063-1.514-3.27.161-.01.32-.023.487-.023 4.59-.002 8.322 4.198 8.322 9.358 0 .479-.023.929-.06 1.373-.4978832.5315763-1.0275205 1.0324943-1.586 1.5-2.9125701 2.3851948-4.52684196 6.0063691-4.354 9.767 0 .5522847.4477153 1 1 1s1-.4477153 1-1c-.1720387-3.1707753 1.1831952-6.2325036 3.646-8.237 3.5281209-2.707959 5.5239529-6.9587008 5.354-11.403 0-6.26-4.71-11.36-10.5-11.36-.66513337.0017525-1.32831115.0721251-1.979.21 1.7381919-3.68980728 5.4020384-6.09011184 9.479-6.21 6.065 0 11 5.627 11 12.544.0786047 5.4490737-2.2845859 10.6475796-6.442 14.171-.138.119-.291.247-.457.386-1.99 1.654-6.129 5.1-7.095 13.789-.0584247.5475087.3367459 1.0392368.884 1.1.0364619.0052945.0731811.0086327.11.01.5093591-.0004745.9369707-.3837316.993-.89.877-7.89 4.46-10.871 6.386-12.472.177-.148.34-.284.486-.41 4.602707-3.8990033 7.2200661-9.6524245 7.135-15.684 0-8.02-5.832-14.544-13-14.544zm-7.5 10c4.687 0 8.5 4.2 8.5 9.36.0453636 1.8921894-.3303607 3.7708112-1.1 5.5-.671-5.56-4.993-9.86-10.22-9.86-.231 0-.453.017-.676.033 0-.192 0-.359 0-.489.00036187-1.3373184.19162438-2.6677377.568-3.951.92726505-.3890787 1.92241707-.5906241 2.928-.593z"/><path id="Shape" d="m50 23c.0767062-3.1517392 1.4133481-6.1412643 3.711-8.3.2790877-.2478662.3968971-.6305358.3055372-.9924487-.0913598-.361913-.3766793-.6428183-.7399727-.7285245-.3632933-.0857062-.7440796.038055-.9875645.3209732-2.6707148 2.5286775-4.215708 6.0228332-4.289 9.7.073292 3.6771668 1.6182852 7.1713225 4.289 9.7.2434849.2829182.6242712.4066794.9875645.3209732.3632934-.0857062.6486129-.3666115.7399727-.7285245.0913599-.3619129-.0264495-.7445825-.3055372-.9924487-2.2976519-2.1587357-3.6342938-5.1482608-3.711-8.3z"/><path id="Shape" d="m56.665 17.253c-.1981032-.1763985-.4581747-.2668617-.7229856-.2514832-.2648108.0153786-.5126623.1353387-.6890144.3334832-3.0038043 3.1793913-3.0038043 8.1506087 0 11.33.2375816.2668774.5994935.386734.9494069.314421s.6346682-.3258096.747-.665.0351747-.7125436-.2024069-.979421c-2.3292957-2.4206558-2.3292957-6.2493442 0-8.67.1763985-.1981032.2668617-.4581747.2514832-.7229856-.0153786-.2648108-.1353387-.5126623-.3334832-.6890144z"/><path id="Shape" d="m59.743 20.331c-.3695287-.4102424-1.0016135-.4433686-1.412-.074-.8404607.6621414-1.3309783 1.6730443-1.3309783 2.743s.4905176 2.0808586 1.3309783 2.743c.2641632.2474727.6414391.3328718.9864254.2232844.3449863-.1095873.6038197-.397051.6767457-.7516024.072926-.3545515-.0514414-.7208339-.3251711-.957682-.3877047-.3080639-.6300126-.7633419-.669-1.257.0389874-.4936581.2812953-.9489361.669-1.257.4102424-.3695287.4433686-1.0016135.074-1.412z"/><path id="Shape" d="m45 23c0-4.4 1.971-8.652 5.7-12.284.2558022-.2500859.3587539-.6176437.2700742-.9642178-.0886796-.34657414-.3555181-.61951181-.7-.71600002-.3444818-.09648821-.714272-.00186811-.9700742.24821782-4.12 4.016-6.3 8.759-6.3 13.716s2.18 9.7 6.3 13.716c.3954359.3865993 1.0294007.3794359 1.416-.016s.3794359-1.0294007-.016-1.416c-3.729-3.632-5.7-7.884-5.7-12.284z"/><path id="Shape" d="m40 23c0-5.494 2.322-10.786 6.717-15.3.2500859-.25615943.3445154-.62627975.2477178-.97094021-.0967976-.34466047-.3701165-.61149896-.717-.7s-.7146319.01478078-.9647178.27094021c-4.764 4.9-7.283 10.675-7.283 16.7s2.519 11.8 7.283 16.7c.3865993.3959882 1.0210118.4035993 1.417.017s.4035993-1.0210118.017-1.417c-4.395-4.514-6.717-9.806-6.717-15.3z"/></g></g>
    </symbol>

    <symbol id="charge"  x="0px" y="0px" viewBox="0 0 409.6 409.6" style="enable-background:new 0 0 409.6 409.6;">
<g>
	<g>
		<path d="M275.483,34.133H134.117c-15.607,0-28.303,12.696-28.303,28.303v318.86c0,15.607,12.696,28.303,28.303,28.303h141.367
			c15.607,0,28.303-12.696,28.303-28.303V62.437C303.787,46.829,291.091,34.133,275.483,34.133z M290.133,381.297
			c0,8.076-6.574,14.65-14.65,14.65H134.117c-8.076,0-14.65-6.574-14.65-14.65V62.437c0-8.076,6.574-14.65,14.65-14.65h141.367
			c8.076,0,14.65,6.574,14.65,14.65V381.297z"/>
	</g>
</g>
<g>
	<g>
		<path d="M242.347,0h-75.093c-3.77,0-6.827,3.057-6.827,6.827V40.96c0,3.77,3.057,6.827,6.827,6.827h75.093
			c3.77,0,6.827-3.057,6.827-6.827V6.827C249.173,3.057,246.117,0,242.347,0z M235.52,34.133h-61.44v-20.48h61.44V34.133z"/>
	</g>
</g>
<g>
	<g>
		<path d="M254.93,187.479c-1.253-1.971-3.424-3.161-5.757-3.161h-40.96v-61.44c0-3.2-2.224-5.97-5.347-6.663
			c-3.152-0.69-6.313,0.877-7.666,3.777l-47.787,102.4c-0.986,2.113-0.823,4.588,0.43,6.554c1.253,1.971,3.424,3.161,5.757,3.161
			h40.96v61.44c0,3.2,2.224,5.97,5.347,6.663c0.497,0.111,0.993,0.164,1.483,0.164c2.606,0,5.043-1.5,6.183-3.941l47.787-102.4
			C256.346,191.92,256.183,189.445,254.93,187.479z M194.56,218.453h-30.24l30.24-64.804V218.453z M208.213,262.777v-64.804h30.24
			L208.213,262.777z"/>
	</g>
</g>
</symbol>

<symbol id="plug"  x="0px" y="0px" viewBox="0 0 512 512" style="enable-background:new 0 0 512 512;">
<g transform="translate(1 1)">
	<g>
		<g>
			<path d="M391.533,109.933h-25.6V24.6c0-14.507-11.093-25.6-25.6-25.6c-14.507,0-25.6,11.093-25.6,25.6v85.333H195.267V24.6
				c0-14.507-11.093-25.6-25.6-25.6c-14.507,0-25.6,11.093-25.6,25.6v85.333h-25.6c-5.12,0-8.533,3.413-8.533,8.533v64.853
				c0,42.667,16.213,83.627,45.227,115.2c25.6,29.013,40.107,66.56,40.107,104.96v22.187c0,23.893,18.773,42.667,42.667,42.667
				h8.533v34.133c0,5.12,3.413,8.533,8.533,8.533c5.12,0,8.533-3.413,8.533-8.533v-34.133h8.533
				c23.893,0,42.667-18.773,42.667-42.667v-21.333c0-39.253,13.653-75.947,40.107-104.96
				c29.013-31.573,45.227-73.387,45.227-116.053v-64.853C400.067,113.347,396.653,109.933,391.533,109.933z M331.8,24.6
				c0-5.12,3.413-8.533,8.533-8.533s8.533,3.413,8.533,8.533v85.333H331.8V24.6z M161.133,24.6c0-4.267,3.413-8.533,8.533-8.533
				c5.12,0,8.533,3.413,8.533,8.533v85.333h-17.067V24.6z M383,182.467c0,39.253-13.653,75.947-40.107,104.96
				C313.88,319,297.667,360.813,297.667,403.48v22.187c0,14.507-11.093,25.6-25.6,25.6h-34.133c-14.507,0-25.6-11.093-25.6-25.6
				v-21.333c0-42.667-16.213-84.48-45.227-116.053C141.507,259.267,127,221.72,127,183.32V127h25.6h34.133h136.533H357.4H383
				V182.467z"/>
			<path d="M289.133,220.867h-47.787l45.227-45.227c3.413-3.413,3.413-8.533,0-11.947s-8.533-3.413-11.947,0l-59.733,59.733
				c-2.56,2.56-3.413,5.973-1.707,9.387c0.853,3.413,4.267,5.12,7.68,5.12h47.787l-45.227,45.227c-3.413,3.413-3.413,8.533,0,11.947
				c1.707,1.707,3.413,2.56,5.973,2.56c2.56,0,4.267-0.853,5.973-2.56l59.733-59.733c2.56-2.56,3.413-5.973,1.707-9.387
				C295.96,222.573,292.547,220.867,289.133,220.867z"/>
		</g>
	</g>
</symbol>

<symbol id="battery"   x="0px" y="0px" viewBox="0 0 60 60" style="enable-background:new 0 0 60 60;" >
<path d="M42.536,4H36V0H24v4h-6.536C15.554,4,14,5.554,14,7.464v49.072C14,58.446,15.554,60,17.464,60h25.072
	C44.446,60,46,58.446,46,56.536V7.464C46,5.554,44.446,4,42.536,4z M16,19h28v12H16V19z M16,33h28v12H16V33z M26,2h8v2h-8V2z
	 M17.464,6H24h12h6.536C43.344,6,44,6.656,44,7.464V17H16V7.464C16,6.656,16.656,6,17.464,6z M42.536,58H17.464
	C16.656,58,16,57.344,16,56.536V47h28v9.536C44,57.344,43.344,58,42.536,58z"/>
<g>
</g>
<g>
</g>
<g>
</g>
<g>
</g>
<g>
</g>
<g>
</g>
<g>
</g>
<g>
</g>
<g>
</g>
<g>
</g>
<g>
</g>
<g>
</g>
<g>
</g>
<g>
</g>
<g>
</g>
</symbol>


    </svg>